<svg xmlns="http://www.w3.org/2000/svg" width="194" height="160.774" viewBox="0 0 194 160.774">
  <g id="LOGO_ARIFTS_BLEU" transform="translate(-335.78 -524.02)">
    <path id="Tracé_1" data-name="Tracé 1" d="M489.828,637.219c.011-.113.011-.272.011-.488a1.742,1.742,0,0,1,.023-.465c.045-.216.068-.42.091-.613s.034-.4.045-.6a1.062,1.062,0,0,0-.181-.613.514.514,0,0,0-.442-.216,4.157,4.157,0,0,0-.454.227c-.182-.1-.329-.193-.454-.272a.805.805,0,0,0-.352-.136l-.544.147a5,5,0,0,1-.556-.136,4.562,4.562,0,0,0-.533-.113,4.04,4.04,0,0,1-.647-.068,3.812,3.812,0,0,0-.613-.068,16.291,16.291,0,0,0-2.042.113,12.542,12.542,0,0,0-1.724.34,5.764,5.764,0,0,0-1.4.011,9.3,9.3,0,0,0-1.656.386,2.619,2.619,0,0,0-.783.431,1.9,1.9,0,0,0-.522.7,4.22,4.22,0,0,0-.193.669c-.068.295-.125.658-.193,1.1-.159.306-.284.544-.363.737a1.227,1.227,0,0,0-.125.4.492.492,0,0,0,.068.329.281.281,0,0,0,.238.125c1.316-.352,2.643-.7,3.982-1.066q.289-.068.544-.136c.17-.034.34-.079.51-.113l.261-.17a3.447,3.447,0,0,1,.488.091,1.835,1.835,0,0,1,.272.091l.091.34c-.045.295-.068.556-.091.771s-.034.4-.045.544q-.255,1.106-.442,1.8a5.746,5.746,0,0,1-.329.953c.045.17.091.329.125.488a1.505,1.505,0,0,1-.125.386c-.079.193-.193.442-.352.76a2.465,2.465,0,0,1,.011.295,2.766,2.766,0,0,1-.011.318,5.421,5.421,0,0,1-.113.635c-.057.238-.125.488-.182.783-.068.34-.125.624-.182.862a3.926,3.926,0,0,0-.1.579c-.034.34-.091.771-.17,1.3s-.2,1.146-.352,1.849-.261,1.327-.34,1.86-.136.976-.159,1.327c-.068.76-.159,1.5-.261,2.246.011,1.032,0,2.031-.023,3.017.045.148.091.272.113.374a1.117,1.117,0,0,0,.068.227,10.242,10.242,0,0,0-.238,1.2.316.316,0,0,0,.147.306,1.006,1.006,0,0,0,.579.113.382.382,0,0,0,.227-.113q.136-.119.34-.306.289-.136.647-.34a.755.755,0,0,0,.2-.25,2.959,2.959,0,0,0,.159-.431c-.034-.2-.068-.408-.113-.624.023-.25.057-.624.125-1.134s.091-.873.113-1.112a4.677,4.677,0,0,1,.125-.59,4.454,4.454,0,0,0,.125-.613,2.839,2.839,0,0,0,0-.442,1.721,1.721,0,0,1-.011-.408c.1-.193.2-.352.284-.51.113-.51.227-1.044.352-1.6s.25-1.1.374-1.645c.079-.374.159-.737.25-1.089.011-.2,0-.4,0-.59a6.815,6.815,0,0,1,.295-.726,4.818,4.818,0,0,0,.227-.556c.079-.272.159-.522.216-.737a3.18,3.18,0,0,0,.1-.567c.125-.363.238-.692.352-.976a3.012,3.012,0,0,0,.2-.7c.034-.227.068-.431.091-.6a3.554,3.554,0,0,1,.091-.454c.057-.17.125-.408.216-.726s.216-.726.374-1.214c.079-.25.17-.579.261-.976a9.588,9.588,0,0,0,.159-.987,1.934,1.934,0,0,0,0-.363,2.644,2.644,0,0,0-.068-.4,5.47,5.47,0,0,0-.284-.839,1.2,1.2,0,0,0-.261-.408,1.76,1.76,0,0,1-.295-.284,1.672,1.672,0,0,1-.182-.284c.011-.079.068-.136.193-.193a1.64,1.64,0,0,1,.533-.113c.306-.034.669-.091,1.078-.17a8.7,8.7,0,0,0,1.361.374,8.314,8.314,0,0,0,1.407.125.374.374,0,0,0,.25-.091.514.514,0,0,0,.1-.307m6.058,36.164H494.32v8.6h5.1v-1.316H495.9v-7.283Zm-15.552,8.6H481.9v-9.052h-1.565Zm-6.4-3.766a1.333,1.333,0,0,0-1.282-1.52,1.528,1.528,0,0,0-1.441,1.52Zm1.486.431a4.187,4.187,0,0,1-.045.658h-4.163c.034,1.123.907,1.611,1.917,1.611a4.926,4.926,0,0,0,1.724-.284l.227,1.066a5.639,5.639,0,0,1-2.167.4,2.935,2.935,0,0,1-3.2-3.142,3.078,3.078,0,0,1,3.04-3.346c2,.023,2.666,1.679,2.666,3.04m11.99.295c-1.112-.011-2.167.216-2.167,1.157a.827.827,0,0,0,.9.9,1.286,1.286,0,0,0,1.236-.851.881.881,0,0,0,.045-.34v-.862Zm1.531,1.543a8.231,8.231,0,0,0,.1,1.5h-1.418l-.113-.692h-.034a2.268,2.268,0,0,1-1.838.828,1.846,1.846,0,0,1-1.951-1.849c0-1.554,1.4-2.359,3.687-2.348v-.1c0-.408-.17-1.089-1.259-1.089a3.233,3.233,0,0,0-1.667.465l-.306-1.021a4.421,4.421,0,0,1,2.246-.544,2.329,2.329,0,0,1,2.564,2.632v2.223Zm12.864-27.735a3.5,3.5,0,0,0-.272-.942,6.1,6.1,0,0,0-.556-.976,6.83,6.83,0,0,1-.669-.817c-.4-.51-.964-1.237-1.7-2.189-.533-.681-.964-1.259-1.316-1.736a13.078,13.078,0,0,1-.771-1.2,6.224,6.224,0,0,1-.522-1.316,3.409,3.409,0,0,1-.1-1.259,3.628,3.628,0,0,1,1-1.86,18.178,18.178,0,0,1,2.722-2.4,1.074,1.074,0,0,1,.272-.147.674.674,0,0,1,.216-.057l.17.113c-.011.216-.318.522-.919.93s-.919.783-.953,1.123a.56.56,0,0,0,.113.454.506.506,0,0,0,.4.147,4.868,4.868,0,0,0,1.985-.9c.964-.6,2.235-1.486,3.823-2.666a1.38,1.38,0,0,0,.4-.669,5.5,5.5,0,0,0,.238-1.293,1.57,1.57,0,0,0-.216-1.089,1.065,1.065,0,0,0-.907-.374,3.374,3.374,0,0,0-.964.227,13.9,13.9,0,0,0-1.633.715c-.442.159-.839.318-1.191.454a4.065,4.065,0,0,0-1.2.624,7.473,7.473,0,0,1-.76.488c-.227.125-.42.227-.567.306A23.7,23.7,0,0,0,495,638.614a8.573,8.573,0,0,0-1.633,1.906c-.057.125-.113.238-.159.34a1.818,1.818,0,0,1-.136.261,4.3,4.3,0,0,0-.681,1.2,5.223,5.223,0,0,0-.318,1.384,6.67,6.67,0,0,0,.057,1.826,2.5,2.5,0,0,0,.51,1.146,5,5,0,0,1,.352.374,1.427,1.427,0,0,1,.227.272.906.906,0,0,1,.193.318c.068.159.159.374.284.624a3,3,0,0,0,.261.408,3.627,3.627,0,0,0,.408.442c.408.352.839.76,1.271,1.214a15.451,15.451,0,0,1,1.3,1.554,12.379,12.379,0,0,1,1.248,1.906,2.505,2.505,0,0,1,.363,1.259,1.245,1.245,0,0,1-.284.544,5.789,5.789,0,0,1-.794.771l-.045.079.057.431c0,.125-.295.431-.908.93a3.22,3.22,0,0,1-1.146.737c-.068,0-.136-.068-.216-.181.011-.1.272-.272.771-.5s.771-.522.805-.862a.4.4,0,0,0-.1-.318.614.614,0,0,0-.431-.113c-1.429.658-2.881,1.327-4.356,1.974a6.316,6.316,0,0,0-1.69,1,1.7,1.7,0,0,0-.647,1.089.735.735,0,0,0,.193.544,2.578,2.578,0,0,0,.658.544,7.192,7.192,0,0,0,.76.352,1.982,1.982,0,0,0,.658.125c.34-.091.635-.17.885-.25a15.018,15.018,0,0,0,3.426-1.577,23.1,23.1,0,0,0,3.653-2.564,5.344,5.344,0,0,0,2.008-5.059m3.392,26.1c0-.964-.431-2.087-1.5-2.087-1.112,0-1.554,1.078-1.554,2.121,0,1.2.6,2.1,1.543,2.1.885,0,1.509-.862,1.509-2.133m1.622-.034a3.078,3.078,0,0,1-3.188,3.3,3,3,0,0,1-3.108-3.2,3.064,3.064,0,0,1,3.21-3.29,2.981,2.981,0,0,1,3.086,3.188m14.338-.6a1.334,1.334,0,0,0-1.293-1.52,1.545,1.545,0,0,0-1.441,1.52Zm1.475.431a4.189,4.189,0,0,1-.045.658h-4.163a1.685,1.685,0,0,0,1.906,1.611,4.926,4.926,0,0,0,1.724-.284l.227,1.066a5.6,5.6,0,0,1-2.167.4,2.935,2.935,0,0,1-3.2-3.142,3.078,3.078,0,0,1,3.04-3.346c2.019.023,2.677,1.679,2.677,3.04m-76.99-53.213c-9.381,1.078-18.763,2.371-28.144,3.539,9.37-.885,18.751-2.212,28.144-3.539m-37.854,3.6a284.564,284.564,0,0,1-8.757-60.212c-.238-7.078-.408-14.339-.17-21.576a254.327,254.327,0,0,0-9.449,23.969,282.739,282.739,0,0,0-13.352,57.445,140.7,140.7,0,0,0,19.625,1.407c4.027-.272,8.065-.624,12.1-1.032m-20.578-60.462A245.014,245.014,0,0,1,399.327,538.8c.079-.987.17-1.962.272-2.938a189.276,189.276,0,0,0-12.013,28.223,264.5,264.5,0,0,0-12.83,56.356,276.952,276.952,0,0,1,12.455-51.875M529.78,625.41c-.295-.079-3.437,1.94-4.832,1.543l-1.259-.34c-1.146.544-2.643,1.18-3.528.953-16.187-4.186-32.443-5.037-48.721-4.322-19.6,1.679-39.249,5.445-58.862,7.294a285.5,285.5,0,0,0,15.632,51.943c.4.976-.9-1.282-1.032-1.611a290.552,290.552,0,0,1-15.4-50.253l-.737.068a285.568,285.568,0,0,0,16.04,50.4c.6,1.429.34,1.168-.136.442.227.59.919,2.439.1,1.35a23.381,23.381,0,0,1-2.575-4.742,334.56,334.56,0,0,1-16.21-47.213c-5.536.442-11.071.692-16.607.692-5.343.374-10.686.6-16.017.624a266.042,266.042,0,0,0-1.543,35.2c-.011-.579-1.849-2.3-1.883-3.448-.034-1.452-.045-2.915-.057-4.367-.715-.987-1.713-2.257-1.736-3.21q-.255-12.1.454-24.208a150.326,150.326,0,0,1-35.086-4.526c.34.091,3.585-2,5.059-1.611a145.749,145.749,0,0,0,30.152,4.356,2.027,2.027,0,0,1,.023-.261,115.979,115.979,0,0,1-14.633-3.1c.295.079,3.437-1.94,4.832-1.543,3.312.942,6.636,1.7,9.96,2.326A264.187,264.187,0,0,1,385.2,559.4c4.265-12.081,9.2-24.593,16.256-35.381-.023.113.17.329.227.408.783,1.123,1.724,2.133,2.4,3.324a18.279,18.279,0,0,1,.9,1.679,2.713,2.713,0,0,1,.329,1.622v.011l.023-.057c-.227,1.021,2.632,3.21,2.3,4.719-2.949,13.624-3.29,28.178-2.972,42.04a278.838,278.838,0,0,0,5.944,50.99c.25-.023.488-.057.737-.079a280.823,280.823,0,0,1-5.49-46.895c-.431-13.93-.34-28.382,2.2-42.153-.1.544,1.361,1.611,1.214,2.393-2.53,13.715-2.666,28.166-2.178,42.028a288.738,288.738,0,0,0,5.048,44.535c21.769-2.393,43.571-6.114,65.328-6.976,17.5-1.429,34.939-1.1,52.306,3.8m-20.373,47.768a.844.844,0,0,0-.885.851.823.823,0,0,0,.862.839.845.845,0,0,0,.9-.839.828.828,0,0,0-.873-.851m-.794,8.8h1.565v-6.2h-1.565Zm5.173-5.037h-.034l-.068-1.168h-1.35c.034.544.057,1.157.057,2.008v4.209h1.565v-3.222a3.135,3.135,0,0,1,.034-.476A1.38,1.38,0,0,1,515.4,677.1a2.93,2.93,0,0,1,.476.034v-1.463a1.809,1.809,0,0,0-2.087,1.27m-64.478,2.144c-.125.4-.25.862-.329,1.214h-.034c-.091-.34-.227-.817-.363-1.2l-1.112-3.324h-1.736l2.28,5.706a.7.7,0,0,1,.079.306.543.543,0,0,1-.091.284,2.555,2.555,0,0,1-.873.976,2.514,2.514,0,0,1-.908.431l.363,1.316A3.378,3.378,0,0,0,448.23,684c.726-.635,1.3-1.667,2.155-3.993l1.554-4.231h-1.668Zm-15.03-30.753c2.609-1.259,3.959-1.917,4.05-1.962a2.16,2.16,0,0,0,.329-.1,2.893,2.893,0,0,0,.329-.147l.318-.363c.76-.465,1.565-.964,2.393-1.486a5.452,5.452,0,0,0,1.191-1.112,2.144,2.144,0,0,0,.454-1.089,1.7,1.7,0,0,0-.692-1.384,7.844,7.844,0,0,0-2.314-1.3,16.041,16.041,0,0,0-2.439-.805,9.082,9.082,0,0,0-2.031-.25,3.4,3.4,0,0,0-1.86.42,1.582,1.582,0,0,0-.726,1.248,3.8,3.8,0,0,0,.011.976c.045.216.125.318.238.295.261-.181.5-.352.726-.522a1.375,1.375,0,0,1,.851-.25c.147,0,.329.17.51.5a1.522,1.522,0,0,1,.261.749,4.583,4.583,0,0,1-.147.6c-.091.318-.227.737-.408,1.282-.4,1.225-.624,1.985-.692,2.291s-.193.794-.374,1.441c-.057.17-.136.374-.2.635a.32.32,0,0,0,.045.25.194.194,0,0,0,.181.091m11.593,13.907-.216.488-.193.091a1.194,1.194,0,0,1-.488-.159c-.193-.113-.442-.261-.737-.465q-.085-.051-.817-.408t-2.11-1.021a8.417,8.417,0,0,1-1.384-.76,9.052,9.052,0,0,1-1.123-.9,8.675,8.675,0,0,0-.76-.624c-.318-.227-.681-.465-1.112-.737a11.809,11.809,0,0,1-1.146-.76c-.318-.238-.567-.431-.76-.6-.635-.556-1.146-.976-1.543-1.259a1.892,1.892,0,0,0-.851-.431,1.334,1.334,0,0,0-.261.544c-.2.59-.431,1.339-.681,2.235s-.522,1.951-.828,3.142a.938.938,0,0,1-.159.476.448.448,0,0,1-.352.159,1.436,1.436,0,0,1-1.078-.363,1.313,1.313,0,0,1-.284-1.078,19.727,19.727,0,0,1,.295-2.019,19.275,19.275,0,0,1,.6-2.223c.091-.34.17-.647.227-.907a7.109,7.109,0,0,0,.113-.749,1.7,1.7,0,0,0-.613-1.486c-.454-.408-.681-.715-.669-.885a2.009,2.009,0,0,1,.182-.726,1.365,1.365,0,0,1,.408-.5c.442-.261.851-.51,1.225-.76a.456.456,0,0,0,.2-.25,1.708,1.708,0,0,0,.091-.5q.017-.187.034-.408t.034-.408c.136-1.123.272-2.28.4-3.494.011-.091.023-.227.034-.42s.023-.431.034-.737a3.838,3.838,0,0,1,.034-.635,5.293,5.293,0,0,0,.068-.533q-.085-.374-.136-.647a1.657,1.657,0,0,1-.045-.522c.011-.147.045-.386.1-.7s.091-.556.1-.692a7.11,7.11,0,0,0,.011-.737,5.988,5.988,0,0,1,.023-.715,3.094,3.094,0,0,1,.42-1.3,4.873,4.873,0,0,1,1.055-1.225,5.6,5.6,0,0,1,1.339-.805,3.586,3.586,0,0,1,1.35-.272c.216,0,.533.011.941.045s.749.045.987.045a5.586,5.586,0,0,1,1.3.42c.284.023.533.068.76.1a4.434,4.434,0,0,1,.533.136c.295.159.533.272.7.352a3.441,3.441,0,0,0,.363.148c.2.079.386.136.544.181a1.165,1.165,0,0,1,.374.193c.159.079.34.17.556.261s.442.216.715.34a6.686,6.686,0,0,1,1.2.794,10.625,10.625,0,0,1,1.044.976,4.83,4.83,0,0,1,.783,1.327,3.022,3.022,0,0,1,.193,1.293q-.017.187-.068.544-.068.34-.17.783a2.586,2.586,0,0,1-.669,1.18,10.383,10.383,0,0,1-1.588,1.384,18.187,18.187,0,0,1-1.679,1.1,6.726,6.726,0,0,1-1.407.635,2.7,2.7,0,0,0-.408.318,4.765,4.765,0,0,1-.839.533c-.42.227-.987.51-1.713.851-1.3.613-2.235,1.021-2.779,1.214s-.828.408-.851.635a1.611,1.611,0,0,0,.454,1.01,12.3,12.3,0,0,0,1.475,1.554c.431.4.885.771,1.35,1.146s.919.749,1.384,1.123c.193.181.454.408.771.692s.681.613,1.1.987c.306.25.624.5.964.76s.7.5,1.089.76c.261.216.544.442.862.692s.681.522,1.1.817a1.282,1.282,0,0,1,.51.817,7.077,7.077,0,0,1,.068,1.543m-2.961,16.7c-1.112-.011-2.167.216-2.167,1.157a.828.828,0,0,0,.9.9,1.3,1.3,0,0,0,1.236-.851.882.882,0,0,0,.045-.34v-.862Zm1.52,1.543a8.228,8.228,0,0,0,.1,1.5h-1.418l-.113-.692h-.034a2.268,2.268,0,0,1-1.838.828,1.846,1.846,0,0,1-1.951-1.849c0-1.554,1.4-2.359,3.687-2.348v-.1c0-.408-.17-1.089-1.259-1.089a3.233,3.233,0,0,0-1.668.465l-.306-1.021a4.421,4.421,0,0,1,2.246-.544,2.329,2.329,0,0,1,2.564,2.632v2.223Zm27.724-30.571a7.237,7.237,0,0,0,.862.147c.2-.306.4-.6.59-.885.079-.51.147-.93.193-1.237s.079-.5.079-.579a.864.864,0,0,0-.476-.873,3.274,3.274,0,0,0-1.611-.318c-.442.079-.885.147-1.316.227h-1.134c-.454.125-.885.227-1.3.318s-.828.148-1.236.193c-.465.125-.862.238-1.191.352a7.2,7.2,0,0,0-.794.295.317.317,0,0,1-.238-.159.709.709,0,0,1-.057-.408,1.408,1.408,0,0,1,.159-.465,2.4,2.4,0,0,0,.181-.4c.51-1.645.908-2.915,1.214-3.811a7.308,7.308,0,0,1,.613-1.531,13.832,13.832,0,0,0,.76-1.35c.159-.329.635-.59,1.452-.783.295-.079.579-.136.851-.181a4.552,4.552,0,0,1,.726-.068c.25.034.477.068.692.091l.7-.261c.352.148.692.295,1.021.42s.647.272.964.42a.683.683,0,0,0,.408-.386,5.061,5.061,0,0,0,.4-1.044q.153-.527.238-.987a5.948,5.948,0,0,0,.113-.805.922.922,0,0,0-.488-.953,3.639,3.639,0,0,0-1.713-.318,3.947,3.947,0,0,0-.522.057c-.216.045-.476.1-.771.193-.147-.079-.261-.125-.352-.17a.516.516,0,0,0-.238-.057l-.635.227c-.136-.034-.295-.079-.465-.113a8.215,8.215,0,0,0-3.766,1.77,17.4,17.4,0,0,0-2.144,2.45,7.561,7.561,0,0,0-1.146,2.337c-.136.544-.272,1.1-.408,1.679,0,.068.011.182.023.34a1.507,1.507,0,0,1,.023.363c-.1.238-.182.431-.238.59a4.7,4.7,0,0,0-.272.919c-.1.454-.216,1.032-.329,1.747a7.821,7.821,0,0,1-.34,1.429,1.1,1.1,0,0,1-.408.6l-.545.374a2.342,2.342,0,0,0-.454.431c-.113.193-.238.374-.374.567s-.272.386-.4.579l.034.193.159.113c.17-.045.306-.091.431-.136a2.257,2.257,0,0,1,.284-.079c.091-.034.181-.068.261-.1s.159-.057.227-.091a.211.211,0,0,1,.193.113.606.606,0,0,1,.034.295,2.112,2.112,0,0,1-.1.408,2.2,2.2,0,0,0-.1.386,3.731,3.731,0,0,0,0,.522,2.332,2.332,0,0,1-.023.544q-.255,1.038-.476,2.042c.034.386.034.783.034,1.18-.068.431-.125.794-.17,1.1a5.786,5.786,0,0,1-.136.771,2.339,2.339,0,0,0-.079.4c-.011.216-.034.544-.034,1s-.011.783-.034,1c-.045.51-.079.93-.091,1.236a3.59,3.59,0,0,0,0,.624,1.278,1.278,0,0,0,.352.828,1.083,1.083,0,0,0,.737.261h.431a3.1,3.1,0,0,0,.476-.681,1.916,1.916,0,0,0,.193-.635c.079-.953.2-1.906.352-2.87s.352-1.94.6-2.949a1.939,1.939,0,0,0,0-.363,1.365,1.365,0,0,1,0-.306l.556-2.235-.079-.579.261-.805a6.191,6.191,0,0,1,.51-1.361q.272-.442.51-.442c.295.034.488.057.579.057a1.734,1.734,0,0,0,.51-.091,1.922,1.922,0,0,0,.522-.272c.238-.011.59-.057,1.044-.125a6.443,6.443,0,0,1,1.044-.113,8.69,8.69,0,0,0,1.1-.068,7.869,7.869,0,0,0,1-.181c.885.2,1.531.341,2,.443m-16.573,28.359c-.794-.295-1.089-.476-1.089-.873s.306-.658.862-.658a2.718,2.718,0,0,1,1.316.363l.318-1.1a3.585,3.585,0,0,0-1.656-.363c-1.441,0-2.348.839-2.348,1.94,0,.737.5,1.407,1.713,1.815.771.284,1.021.488,1.021.907s-.306.7-1,.7a3.274,3.274,0,0,1-1.577-.465l-.318,1.146a4.051,4.051,0,0,0,1.883.431c1.645,0,2.53-.817,2.53-1.951-.011-.93-.522-1.509-1.656-1.894m-19.069-2.291c0-.964-.658-1.452-1.747-1.452a3.905,3.905,0,0,0-.907.079v2.881a2.474,2.474,0,0,0,.771.079c1.18,0,1.883-.59,1.883-1.588m.715-1.962a2.425,2.425,0,0,1,.839,1.894,2.637,2.637,0,0,1-.726,1.94,3.821,3.821,0,0,1-2.711.93,3.145,3.145,0,0,1-.771-.068v3.256H432.3v-8.485a13.757,13.757,0,0,1,2.394-.182,3.934,3.934,0,0,1,2.53.715m29.108,4.345a1.762,1.762,0,0,0-.045-.42,1.371,1.371,0,0,0-1.35-1.1c-1.01,0-1.565.9-1.565,2.042s.567,1.974,1.554,1.974a1.376,1.376,0,0,0,1.35-1.112,1.911,1.911,0,0,0,.057-.454v-.93Zm1.577,1.872c0,.635.023,1.327.057,1.747h-1.4l-.079-.976h-.023a2.231,2.231,0,0,1-2.019,1.123c-1.5,0-2.666-1.259-2.666-3.176-.011-2.076,1.293-3.312,2.779-3.312a1.968,1.968,0,0,1,1.747.805h.023V672.94H467.9v7.294Zm-10.073-45.443a.889.889,0,0,1,.1.579c-.011.1-.091.442-.25,1.044s-.374,1.429-.681,2.484c-.068.352-.17.771-.295,1.259s-.295,1.055-.51,1.724c-.25.737-.51,1.554-.771,2.439s-.51,1.86-.749,2.927c-.1.454-.2.9-.318,1.339s-.227.885-.329,1.339c-.125.522-.227,1-.329,1.463a10.1,10.1,0,0,0-.193,1.237,2.311,2.311,0,0,0,0,.4,1.815,1.815,0,0,1,0,.352,2.1,2.1,0,0,1-.057.544q-.085.34-.17.817-.119.46-.2.817a4.685,4.685,0,0,0-.1.556c-.057.647-.091,1.168-.091,1.554a5.542,5.542,0,0,0,.034.783q.085.51.17,1.089c-.023.216-.329.533-.93.953a2.935,2.935,0,0,1-1.282.635.587.587,0,0,1-.4-.159,1.919,1.919,0,0,1-.318-.476,5.353,5.353,0,0,1-.159-.544,1.618,1.618,0,0,1-.034-.454,1.519,1.519,0,0,1,.1-.363,1.538,1.538,0,0,0,.113-.363,4.793,4.793,0,0,0-.261-.942c-.034.125-.045.1-.034-.079s.045-.51.091-1a17.147,17.147,0,0,1,.238-1.781,9.326,9.326,0,0,1,.284-1.146c-.011-.216-.011-.431-.034-.658.023-.261.091-.7.2-1.316s.284-1.418.488-2.416c.193-.953.363-1.69.488-2.212a9.38,9.38,0,0,1,.261-.953c-.011-.216-.011-.442-.023-.692a5.934,5.934,0,0,0-.091-.828l-.386-.306-.079-.227c.057-.352.1-.7.159-1.066a9.523,9.523,0,0,1,.216-1.078,6.13,6.13,0,0,1,.284-1.191,8.689,8.689,0,0,1,.374-.885c.034-.057.091-.147.147-.261a4.062,4.062,0,0,1,.2-.363c.159-.454.306-.907.454-1.361s.306-.9.476-1.316a2.961,2.961,0,0,1,.907-1.032,3.136,3.136,0,0,1,1.316-.51,7.451,7.451,0,0,1,.941-.42,1.788,1.788,0,0,1,.613-.147.494.494,0,0,1,.408.216" transform="translate(0 0)" fill="#0277bd"/>
  </g>
</svg>
